Coordinates
version=1
nRows=17
nColumns=40
inDegrees=yes

Units are S.I. units (second, meters, Newtons, ...)
Angles are in degrees.

endheader
time	pelvis_tilt	pelvis_list	pelvis_rotation	pelvis_tx	pelvis_ty	pelvis_tz	hip_flexion_r	hip_adduction_r	hip_rotation_r	knee_angle_r	knee_angle_r_beta	ankle_angle_r	subtalar_angle_r	mtp_angle_r	hip_flexion_l	hip_adduction_l	hip_rotation_l	knee_angle_l	knee_angle_l_beta	ankle_angle_l	subtalar_angle_l	mtp_angle_l	lumbar_extension	lumbar_bending	lumbar_rotation	arm_flex_r	arm_add_r	arm_rot_r	elbow_flex_r	pro_sup_r	wrist_flex_r	wrist_dev_r	arm_flex_l	arm_add_l	arm_rot_l	elbow_flex_l	pro_sup_l	wrist_flex_l	wrist_dev_l
      1.74000000	     -3.82335321	     -1.06941373	     -5.45711955	     -0.05941073	      0.87476223	     -0.98529796	     -1.84343206	      1.32347187	    -12.16458438	    -23.72695455	     -0.41411348	     14.76715607	      2.74257443	     -4.90421814	     32.99501884	      6.84113269	     15.84754539	    -26.16888295	     -0.45673317	      4.16966418	      7.86626292	      4.76174282	     -2.94047755	     -0.62086784	      3.78856680	      5.73537522	    -10.98770136	     -6.81514084	     35.26185318	     89.95437384	      0.00000000	      0.00000000	     -4.61730297	      6.91256411	     19.44444963	     25.22991315	     89.95437384	      0.00000000	      0.00000000
      1.75000000	     -3.75150075	     -1.11551231	     -5.63666267	     -0.05197440	      0.87453406	     -0.98635168	     -2.33786524	      1.23737494	    -11.66014278	    -23.86003272	     -0.41643613	     14.83302902	      2.79754243	     -4.99356485	     32.98483578	      6.89088006	     15.94581973	    -27.03912766	     -0.47192180	      3.11249025	      9.08195823	      4.79989571	     -2.96012370	     -0.62741568	      3.90549680	      5.83520798	    -10.87626078	     -7.07682334	     34.63533560	     89.95437384	      0.00000000	      0.00000000	     -4.33829792	      6.92590944	     19.43407105	     24.80060508	     89.95437384	      0.00000000	      0.00000000
      1.76000000	     -3.90950917	     -1.07521641	     -5.67505658	     -0.04424118	      0.87404511	     -0.98784217	     -2.43606538	      1.00354436	    -11.41772166	    -24.33214242	     -0.42467600	     14.42357688	      2.67583347	     -4.89038114	     32.99974366	      6.71339375	     15.59623132	    -27.41858972	     -0.47854467	      2.88199513	      8.85690467	      4.69952435	     -2.70970235	     -0.68353947	      3.89469810	      5.47722170	    -10.89240059	     -7.05329954	     34.69076029	     89.95437384	      0.00000000	      0.00000000	     -4.44597944	      6.92018006	     19.36800349	     25.09116994	     89.95437384	      0.00000000	      0.00000000
      1.77000000	     -4.14415890	     -0.84983516	     -5.93019207	     -0.03698000	      0.87380180	     -0.98912081	     -2.28310764	      0.63520745	    -10.69774861	    -24.97048077	     -0.43581711	     13.94635824	      2.01173015	     -4.86589447	     33.28601003	      6.37327656	     15.08386003	    -28.17751988	     -0.49179050	      2.03625483	     11.32604903	      4.66837826	     -2.35618473	     -0.95368442	      4.10424681	      5.55715625	    -10.68164351	     -7.56029693	     33.87628898	     89.95437384	      0.00000000	      0.00000000	     -4.13714366	      6.94671047	     19.38885076	     24.62166610	     89.95437384	      0.00000000	      0.00000000
      1.78000000	     -4.27088946	     -0.78037583	     -5.92480712	     -0.02879046	      0.87373192	     -0.99058041	     -2.38837356	      0.39507178	    -10.47585716	    -25.48513554	     -0.44479953	     13.52989873	      1.89001784	     -4.75605819	     33.22932283	      6.18531101	     14.69501120	    -28.65652710	     -0.50015075	      1.74639366	     11.00484066	      4.57460962	     -2.08120674	     -1.05876586	      4.05105204	      5.11985131	    -10.67109888	     -7.51811774	     33.90698824	     89.95437384	      0.00000000	      0.00000000	     -4.25994903	      6.99970040	     19.32333010	     24.89394301	     89.95437384	      0.00000000	      0.00000000
      1.79000000	     -4.41900577	     -0.43668200	     -5.79509384	     -0.02117392	      0.87385829	     -0.99265536	     -2.23440475	     -0.19242260	    -10.42860083	    -26.32801415	     -0.45951053	     12.89535969	      0.82834192	     -4.56827178	     33.43268395	      5.42486236	     13.67378129	    -29.44681699	     -0.51394391	      0.93528775	     13.45117544	      4.58127471	     -1.79357812	     -1.44059380	      3.85573571	      5.11580959	    -10.47859915	     -7.94185598	     33.18494977	     89.95437384	      0.00000000	      0.00000000	     -3.98135257	      7.07789918	     19.24106950	     24.47954226	     89.95437384	      0.00000000	      0.00000000
      1.80000000	     -4.53378656	     -0.41231377	     -5.72910998	     -0.01274442	      0.87410936	     -0.99403883	     -2.33513205	     -0.36281903	    -10.21402284	    -26.87394550	     -0.46903883	     12.46609517	      0.78225291	     -4.46324125	     33.28370822	      5.29117778	     13.38163237	    -29.84855231	     -0.52095551	      0.79385169	     13.01897641	      4.48468174	     -1.49375582	     -1.52694064	      3.77760665	      4.59288606	    -10.44898549	     -7.89570452	     33.20167590	     89.95437384	      0.00000000	      0.00000000	     -4.12234877	      7.15411172	     19.17817531	     24.76035047	     89.95437384	      0.00000000	      0.00000000
      1.81000000	     -4.32071540	     -0.29199948	     -5.68100533	     -0.00461278	      0.87484053	     -0.99580481	     -2.50004416	     -0.81441107	    -10.32193158	    -27.91778147	     -0.48725721	     11.55354593	      0.45974260	     -4.25788818	     33.00777768	      5.05110279	     13.33195217	    -30.78090171	     -0.53722808	      0.98311161	     13.22032120	      4.38841279	     -1.58881930	     -1.70634508	      3.63849335	      4.49908754	    -10.38111021	     -7.92114497	     32.65335117	     89.95437384	      0.00000000	      0.00000000	     -3.95288825	      7.27408225	     18.94131220	     24.56821420	     89.95437384	      0.00000000	      0.00000000
      1.82000000	     -4.37397585	      0.06718005	     -5.54841906	      0.00352735	      0.87546380	     -0.99811121	     -2.26051941	     -1.53901587	    -10.52745530	    -29.11370496	     -0.50813001	     10.38739534	     -0.45195963	     -3.74575998	     32.59623875	      4.18456750	     12.64481353	    -30.78263163	     -0.53725827	      1.21992569	     14.43277726	      4.44727713	     -1.34861500	     -2.10083692	      3.49566057	      4.23305846	    -10.23237030	     -8.36688704	     32.20706924	     89.95437384	      0.00000000	      0.00000000	     -3.83848802	      7.32867368	     18.86231033	     24.58335287	     89.95437384	      0.00000000	      0.00000000
      1.83000000	     -4.30726892	      0.01130634	     -5.36862405	      0.01166429	      0.87620778	     -0.99990797	     -2.12944281	     -1.69439329	    -10.41321771	    -30.37936636	     -0.53021997	      9.38845751	     -0.60222259	     -3.53341312	     32.24258628	      3.99385314	     12.41133246	    -31.23083741	     -0.54508094	      1.36500180	     13.97642040	      4.31692179	     -1.30787665	     -2.08336653	      3.20633073	      3.87645810	    -10.23111313	     -8.28459511	     32.15201078	     89.95437384	      0.00000000	      0.00000000	     -3.85759418	      7.42864044	     18.71417667	     24.76086673	     89.95437384	      0.00000000	      0.00000000
      1.84000000	     -4.29787657	      0.11437647	     -5.35157208	      0.01947148	      0.87699799	     -1.00187829	     -1.58975528	     -2.19107010	    -10.60683253	    -32.08414404	     -0.55997395	      7.67987814	     -1.25696081	     -3.07215166	     31.85412018	      3.60857986	     12.19215384	    -31.48934990	     -0.54959284	      1.90600328	     14.13681051	      4.23657866	     -1.20682779	     -2.20815860	      3.14704587	      3.63091459	    -10.23823276	     -8.22123824	     31.76742391	     89.95437384	      0.00000000	      0.00000000	     -3.73973890	      7.46642235	     18.49097301	     24.79352852	     89.95437384	      0.00000000	      0.00000000
      1.85000000	     -4.46047442	      0.26526813	     -5.15186783	      0.02694918	      0.87751856	     -1.00408824	     -0.71907618	     -2.57842574	    -10.41443175	    -33.99574426	     -0.59333767	      6.10776601	     -2.38763165	     -2.25884640	     31.65049624	      2.97469406	     11.53396095	    -31.61884062	     -0.55185287	      2.23038454	     15.02391884	      4.41049815	     -0.95488464	     -2.37201894	      2.87045845	      3.30116450	    -10.20905231	     -8.22688438	     31.65840616	     89.95437384	      0.00000000	      0.00000000	     -3.66228617	      7.55465265	     18.34567812	     24.98831019	     89.95437384	      0.00000000	      0.00000000
      1.86000000	     -4.33215479	      0.14985434	     -5.02442528	      0.03461466	      0.87841485	     -1.00597617	     -0.13723575	     -2.76481891	    -10.40677867	    -35.92830934	     -0.62706729	      4.42542702	     -2.62744941	     -1.86160904	     31.12787303	      2.85061884	     11.43238429	    -31.92249078	     -0.55715257	      2.80701243	     14.79726421	      4.31258115	     -1.04406716	     -2.26671364	      2.62932716	      3.09202235	    -10.20365646	     -8.20563485	     31.46773005	     89.95437384	      0.00000000	      0.00000000	     -3.59106226	      7.63527103	     18.20187225	     25.26793348	     89.95437384	      0.00000000	      0.00000000
      1.87000000	     -4.58027211	      0.23542864	     -4.92391726	      0.04154765	      0.87873872	     -1.00797617	      1.17910835	     -3.03361958	    -10.06549542	    -38.19585177	     -0.66664337	      2.43607711	     -3.91225330	     -0.73948895	     30.98857781	      2.41335872	     11.04194802	    -32.01452030	     -0.55875879	      3.21813273	     15.38756729	      4.56839169	     -0.76414070	     -2.35313503	      2.42757304	      2.78413184	    -10.21921588	     -8.08553743	     31.39590147	     89.95437384	      0.00000000	      0.00000000	     -3.48582046	      7.72172654	     17.98870774	     25.52320584	     89.95437384	      0.00000000	      0.00000000
      1.88000000	     -4.38565073	      0.10978850	     -4.83736697	      0.04889591	      0.87964126	     -1.00987198	      1.89313465	     -3.19802416	     -9.92827963	    -40.25940393	     -0.70265915	      0.51967064	     -4.09129361	     -0.33543762	     30.33468304	      2.35998928	     11.11912971	    -32.22023128	     -0.56234912	      3.84087144	     15.04636120	      4.46062134	     -0.97817827	     -2.23087161	      2.21264812	      2.59572018	    -10.23660246	     -8.10602543	     31.28023336	     89.95437384	      0.00000000	      0.00000000	     -3.35181371	      7.79311723	     17.85215160	     25.84806880	     89.95437384	      0.00000000	      0.00000000
      1.89000000	     -4.46875707	      0.25729427	     -4.84702257	      0.05577433	      0.88011178	     -1.01162138	      3.14874090	     -3.51612527	     -9.40688681	    -42.52814094	     -0.74225608	     -1.75323792	     -5.55708436	      0.64937293	     29.91747500	      2.03161484	     11.24817449	    -32.19231603	     -0.56186191	      4.32388968	     15.22986442	      4.58197078	     -0.87674247	     -2.40717966	      2.09655904	      2.37369750	    -10.19435047	     -8.06114482	     31.19308253	     89.95437384	      0.00000000	      0.00000000	     -3.19619293	      7.95756185	     17.51880475	     26.14039529	     89.95437384	      0.00000000	      0.00000000
      1.90000000	     -4.36559861	      0.27547070	     -4.81488575	      0.06260668	      0.88074887	     -1.01346875	      4.17111311	     -3.69512020	     -8.91471812	    -44.74479889	     -0.78094406	     -3.46185788	     -6.43476373	      1.49398566	     29.34308126	      1.86543457	     11.43451391	    -32.28328914	     -0.56344969	      4.86708247	     15.00546846	      4.63844610	     -1.01458528	     -2.41796030	      1.90425702	      2.25134993	    -10.20089584	     -8.07061984	     31.04552929	     89.95437384	      0.00000000	      0.00000000	     -3.03997886	      8.11305738	     17.05157432	     26.45195985	     89.95437384	      0.00000000	      0.00000000
